<svg xmlns="http://www.w3.org/2000/svg" viewBox="0 0 200 287.5"><defs><style>.cls-1{fill:none;stroke:#424242;stroke-linecap:round;stroke-linejoin:round;stroke-width:10px;}.cls-2{fill:#424242;}</style></defs><g id="Layer_2" data-name="Layer 2"><g id="Icons"><polygon class="cls-1" points="75 117.5 95 282.5 145 282.5 135 47.5 15 47.5 5 282.5 55 282.5 75 117.5"/><polyline class="cls-1" points="85 67.5 85.05 67.5 104.85 67.5 110 67.5 114.8 67.5 135.85 67.5"/><polyline class="cls-1" points="14.15 67.5 35.2 67.5 40 67.5 45.15 67.5 64.95 67.5 65 67.5"/><path class="cls-1" d="M65,47.5v40c11,0,20-8.13,20-18.18V47.5"/><path class="cls-1" d="M110,87.5v.9a14.65,14.65,0,0,0,11,14l16.55,4.4"/><path class="cls-1" d="M40,87.5v.9a14.65,14.65,0,0,1-11,14l-16.55,4.4"/><line class="cls-1" x1="110" y1="47.5" x2="110" y2="67.5"/><line class="cls-1" x1="40" y1="47.5" x2="40" y2="67.5"/><line class="cls-1" x1="135" y1="25" x2="135" y2="5"/><line class="cls-1" x1="15" y1="25" x2="15" y2="5"/><line class="cls-1" x1="35" y1="15" x2="110" y2="15"/><polygon class="cls-2" points="105 2.5 105 27.5 125 15 105 2.5"/><polygon class="cls-2" points="195 252.5 170 254.99 184.62 272.5 195 252.5"/><polygon class="cls-2" points="160 77.5 185 75.01 170.38 57.5 160 77.5"/><polygon class="cls-2" points="35 139.1 60 142.5 50.47 122.5 35 139.1"/><polygon class="cls-2" points="45 257.02 20 252.5 28.61 272.5 45 257.02"/><polygon class="cls-2" points="45 2.5 45 27.5 25 15 45 2.5"/><line class="cls-1" x1="63.44" y1="115.31" x2="39.58" y2="112.07"/><line class="cls-1" x1="47.5" y1="135.78" x2="32.5" y2="257.66"/><line class="cls-1" x1="155" y1="47.5" x2="185" y2="47.5"/><line class="cls-1" x1="165" y1="282.5" x2="195" y2="282.5"/><line class="cls-1" x1="172.5" y1="71.25" x2="183.13" y2="257.66"/></g></g></svg>