<svg width="154" height="40" viewBox="0 0 154 40" fill="none" xmlns="http://www.w3.org/2000/svg">
<path fill-rule="evenodd" clip-rule="evenodd" d="M33.5935 27.1302H37.3278V8.64365H33.5935V27.1302ZM33.8263 1.1363C34.7218 0.138162 36.2003 0.138162 37.095 1.1363C37.9897 2.13434 37.9897 3.78341 37.095 4.78154C36.2003 5.77959 34.7218 5.77959 33.8263 4.78154C32.9316 3.78341 32.9316 2.13434 33.8263 1.1363Z" fill="white"/>
<path fill-rule="evenodd" clip-rule="evenodd" d="M66.1017 1.19315C66.9972 0.11921 68.4757 0.11921 69.3704 1.19315C70.2651 2.267 70.2651 4.0413 69.3704 5.11524C68.4757 6.18909 66.9972 6.18909 66.1017 5.11524C65.207 4.0413 65.207 2.267 66.1017 1.19315Z" fill="white"/>
<path fill-rule="evenodd" clip-rule="evenodd" d="M65.4307 27.1301H69.1193V8.68701H65.4307V27.1301Z" fill="white"/>
<path fill-rule="evenodd" clip-rule="evenodd" d="M47.4444 27.1301H43.2988V17.288C43.2988 14.3782 44.0757 12.2387 45.5875 10.8264C47.1422 9.41437 49 8.68701 51.1161 8.68701C53.2314 8.68701 55.0891 9.41437 56.6439 10.8264C58.1986 12.2387 58.9755 14.421 58.9755 17.288V27.1301H54.8299V17.288C54.8299 14.2498 53.361 12.6238 51.1161 12.6238C48.8695 12.6238 47.4444 14.2071 47.4444 17.288V27.1301Z" fill="white"/>
<path fill-rule="evenodd" clip-rule="evenodd" d="M25.3284 10.8264C23.7982 9.41454 21.9709 8.68701 19.8894 8.68701C17.8073 8.68701 15.9801 9.41454 14.4507 10.8264C14.3734 10.9 14.3062 10.9836 14.2327 11.061C14.1576 10.9836 14.089 10.8997 14.0097 10.8264C12.4797 9.41454 10.6524 8.68701 8.57094 8.68701C6.48888 8.68701 4.66156 9.41454 3.13222 10.8264C1.64485 12.2387 0.879883 14.3781 0.879883 17.2882V27.1301H4.95886V17.2882C4.95886 14.2071 6.36118 12.6238 8.57094 12.6238C10.677 12.6238 12.0852 14.1046 12.2124 16.875C12.2087 17.0136 12.1984 17.1456 12.1984 17.2882V27.1301H16.304V17.2882C16.304 17.1443 16.2934 17.0102 16.2895 16.8698C16.4131 14.0662 17.7827 12.6238 19.8894 12.6238C22.0986 12.6238 23.5434 14.2498 23.5434 17.2882V27.1301H27.6224V17.2882C27.6224 14.421 26.8572 12.2387 25.3284 10.8264Z" fill="white"/>
<path fill-rule="evenodd" clip-rule="evenodd" d="M100.945 10.8264C99.4155 9.41454 97.5877 8.68701 95.5066 8.68701C93.4246 8.68701 91.5968 9.41454 90.0672 10.8264C89.9903 10.9 89.9227 10.9836 89.8493 11.061C89.7741 10.9836 89.7057 10.8997 89.6263 10.8264C88.0967 9.41454 86.2689 8.68701 84.1877 8.68701C82.1057 8.68701 80.278 9.41454 78.7492 10.8264C77.2618 12.2387 76.4966 14.3781 76.4966 17.2882V27.1301H80.5753V17.2882C80.5753 14.2071 81.9782 12.6238 84.1877 12.6238C86.2942 12.6238 87.7022 14.1046 87.8289 16.875C87.8255 17.0136 87.8154 17.1456 87.8154 17.2882V27.1301H91.9211V17.2882C91.9211 17.1443 91.9101 17.0102 91.9068 16.8698C92.0301 14.0662 93.4001 12.6238 95.5066 12.6238C97.7153 12.6238 99.1604 14.2498 99.1604 17.2882V27.1301H103.239V17.2882C103.239 14.421 102.475 12.2387 100.945 10.8264Z" fill="white"/>
<path fill-rule="evenodd" clip-rule="evenodd" d="M112.823 17.9084C112.823 19.4737 113.331 20.7426 114.301 21.7579C115.314 22.7309 116.538 23.2385 118.015 23.2385C119.491 23.2385 120.715 22.7309 121.686 21.7579C122.699 20.7426 123.205 19.4737 123.205 17.9084C123.205 16.3434 122.699 15.0743 121.686 14.1015C120.715 13.0863 119.491 12.5787 118.015 12.5787C116.538 12.5787 115.314 13.0863 114.301 14.1015C113.331 15.0743 112.823 16.3434 112.823 17.9084ZM111.473 11.3942C113.288 9.57521 115.44 8.68701 118.015 8.68701C120.547 8.68701 122.699 9.57521 124.514 11.3942C126.328 13.2131 127.215 15.3704 127.215 17.9084C127.215 20.4889 126.328 22.6461 124.514 24.4651C122.699 26.2418 120.547 27.1301 118.015 27.1301C115.44 27.1301 113.288 26.2418 111.473 24.4651C109.659 22.6461 108.772 20.4889 108.772 17.9084C108.772 15.3704 109.659 13.2131 111.473 11.3942Z" fill="white"/>
<path fill-rule="evenodd" clip-rule="evenodd" d="M145.663 21.7578C144.692 22.7309 143.467 23.2385 141.991 23.2385C140.513 23.2385 139.289 22.7309 138.277 21.7578C137.306 20.7425 136.799 19.4737 136.799 17.9084C136.799 16.3432 137.306 15.0743 138.277 14.1015C139.289 13.0863 140.513 12.5787 141.991 12.5787C143.467 12.5787 144.692 13.0863 145.663 14.1015C146.675 15.0743 147.181 16.3432 147.181 17.9084C147.181 19.4737 146.675 20.7425 145.663 21.7578ZM141.991 8.68701C139.416 8.68701 137.264 9.57504 135.449 11.3942C133.635 13.2131 132.748 15.3704 132.748 17.9084C132.748 20.4889 133.635 22.6461 135.449 24.465C137.264 26.2418 139.416 27.1301 141.991 27.1301C144.522 27.1301 146.675 26.2418 148.491 24.465C150.304 22.6461 151.191 20.4889 151.191 17.9084C151.191 15.3704 150.304 13.2131 148.491 11.3942C146.675 9.57504 144.522 8.68701 141.991 8.68701Z" fill="white"/>
<path fill-rule="evenodd" clip-rule="evenodd" d="M145.663 33.9014C144.692 34.8752 143.467 35.3822 141.991 35.3822C140.513 35.3822 139.289 34.8752 138.277 33.9014C137.306 32.8865 136.799 31.6175 136.799 30.0522H132.748C132.748 32.6326 133.635 34.7902 135.449 36.6091C137.264 38.3858 139.416 39.2738 141.991 39.2738C144.522 39.2738 146.675 38.3858 148.491 36.6091C150.304 34.7902 151.191 32.6326 151.191 30.0522H147.181C147.181 31.6175 146.675 32.8865 145.663 33.9014Z" fill="white"/>
<path fill-rule="evenodd" clip-rule="evenodd" d="M151.653 5.92041C150.38 5.92041 149.347 7.15895 149.347 8.68688C149.347 10.2145 150.38 11.4533 151.653 11.4533C152.926 11.4533 153.958 10.2145 153.958 8.68688C153.958 7.15895 152.926 5.92041 151.653 5.92041Z" fill="white"/>
</svg>
