<?xml version="1.0" encoding="UTF-8"?><svg id="Layer_1" xmlns="http://www.w3.org/2000/svg" viewBox="0 0 250.11 42.17"><defs><style>.cls-1{fill:#fff;}.cls-2{fill:#ff5c00;}</style></defs><g><polygon class="cls-2" points="29.87 14.06 35.14 31.63 28.11 42.17 21.09 31.63 26.36 14.06 29.87 14.06"/><polygon class="cls-2" points="47.44 17.57 47.44 0 35.14 14.06 40.41 29.87 56.23 26.36 47.44 17.57"/><polygon class="cls-2" points="8.79 17.57 8.79 0 21.09 14.06 15.81 29.87 0 26.36 8.79 17.57"/></g><path class="cls-2" d="M79.81,10.31c-.38,.36-.57,.81-.57,1.32v1.77h19.66c.53,0,.98-.18,1.35-.54,.38-.36,.57-.81,.57-1.32v-1.77h-19.66c-.53,0-.98,.18-1.35,.54Z"/><path class="cls-2" d="M79.25,31.89h2.72c.28,0,.55-.11,.77-.31,.23-.21,.35-.48,.35-.78v-8.15h13.89c.53,0,.98-.18,1.35-.54,.38-.36,.57-.81,.57-1.32v-1.77h-19.65v12.87Z"/><path class="cls-2" d="M131.84,13.01c-1.04-1-2.27-1.79-3.65-2.37-2.78-1.15-6.16-1.15-8.95,0-1.39,.57-2.63,1.37-3.67,2.37-1.04,1-1.87,2.18-2.48,3.51-.61,1.34-.92,2.8-.92,4.32s.31,2.95,.92,4.29c.6,1.33,1.44,2.52,2.48,3.52,1.04,1,2.27,1.79,3.67,2.37,1.4,.57,2.9,.87,4.48,.87s3.08-.29,4.47-.87c1.39-.58,2.61-1.37,3.65-2.37,1.04-1,1.87-2.18,2.48-3.52,.61-1.34,.92-2.79,.92-4.29s-.31-2.98-.92-4.32c-.61-1.33-1.44-2.52-2.48-3.51Zm-.33,7.84c0,1.01-.2,1.97-.61,2.86-.41,.89-.97,1.69-1.67,2.36-.7,.67-1.54,1.21-2.48,1.6-1.88,.78-4.19,.78-6.07,0-.95-.39-1.79-.93-2.5-1.6-.71-.67-1.27-1.47-1.68-2.36-.4-.89-.61-1.85-.61-2.86s.2-2,.61-2.89c.41-.89,.97-1.69,1.68-2.36,.71-.67,1.55-1.21,2.5-1.6,.94-.39,1.96-.58,3.04-.58s2.1,.2,3.04,.58c.94,.39,1.78,.93,2.48,1.6,.7,.67,1.26,1.47,1.67,2.36,.4,.89,.61,1.86,.61,2.89Z"/><path class="cls-2" d="M168.35,9.77c-.73,0-1.38,.29-1.96,.87l-9.58,10.01c-1.14,1.19-2.08,2.18-2.84,2.98-.76,.8-1.41,1.47-1.94,2.03-.53,.55-.99,1.03-1.38,1.42-.39,.4-.76,.79-1.12,1.18-.35,.38-.73,.78-1.15,1.2-.42,.43-.92,.96-1.52,1.59l-.79,.84h3.79c.78,0,1.44-.29,1.96-.87l7.4-7.73,7.4,7.73c.55,.57,1.21,.87,1.96,.87h3.57l-10.57-11.07,10.58-11.04h-3.81Z"/><path class="cls-2" d="M154.67,17.87s.03,0,.05,0c.45,0,.85-.18,1.17-.53l1.15-1.23-5.22-5.47c-.57-.57-1.23-.86-1.95-.86h-3.56l7.19,7.56c.31,.33,.71,.52,1.17,.53Z"/><path class="cls-1" d="M187.41,11.56c0-.51-.19-.96-.57-1.32h0c-.37-.36-.83-.54-1.36-.54h-1.92v7.68l3.85-3.13v-2.68Z"/><path class="cls-1" d="M198.02,9.7c-.87,0-1.66,.29-2.37,.86l-10.84,8.95c-.79,.65-1.25,1.62-1.25,2.64v7.85c0,.51,.2,.97,.57,1.32,.37,.36,.83,.54,1.36,.54h1.92v-7.68l8.26,6.82c.68,.57,1.47,.86,2.34,.86h4.33l-13.43-11.1,13.43-11.07h-4.33Z"/><path class="cls-1" d="M215.58,9.7h-1.92V30c0,.52,.19,.96,.57,1.32,.37,.36,.83,.54,1.36,.54h1.92V11.56c0-.51-.19-.96-.57-1.33-.37-.36-.83-.54-1.36-.54Z"/><g><path class="cls-1" d="M249.18,10.24c-.36-.36-.82-.55-1.35-.55h-19.02v1.78c0,.51,.19,.96,.57,1.32,.37,.36,.83,.54,1.36,.54h18.99v-1.78c0-.51-.18-.96-.55-1.32Z"/><path class="cls-1" d="M239.29,15.93h-1.92v14.06c0,.52,.19,.96,.57,1.32,.37,.36,.83,.54,1.36,.54h1.92v-14.04c0-.53-.19-.99-.57-1.35-.37-.36-.83-.54-1.36-.54Z"/></g></svg>