<svg xmlns="http://www.w3.org/2000/svg" class="om-lucky-wheel-image" viewBox="0 0 730 730" style="width:470px">
    <g class="om-lucky-wheel-wrapper">
        <circle cx="365" cy="365" r="347.6" fill="#fff"/>
        <g fill="#fff">
            <rect width="9.3" height="24.33" x="360.4" rx="4" ry="4"/>
            <rect width="24.3" height="9.27" x="352.8" y="713.2" rx="4" ry="4" transform="rotate(90 365 717.8)"/>
            <rect width="24.3" height="9.27" x="176.4" y="54.8" rx="4" ry="4" transform="rotate(60 188.600994 59.466504)"/>
            <rect width="24.3" height="9.27" x="529.2" y="665.9" rx="4" ry="4" transform="rotate(60 541.400994 670.534029)"/>
            <rect width="24.3" height="9.27" x="47.3" y="183.9" rx="4" ry="4" transform="rotate(30 59.547114 188.644399)"/>
            <rect width="24.3" height="9.27" x="658.4" y="536.8" rx="4" ry="4" transform="rotate(30 670.454874 541.352158)"/>
            <rect width="24.3" height="9.27" y="360.4" rx="4" ry="4"/>
            <rect width="24.3" height="9.27" x="705.7" y="360.4" rx="4" ry="4"/>
            <rect width="24.3" height="9.27" x="47.3" y="536.8" rx="4" ry="4" transform="rotate(-30 59.544399 541.354874)"/>
            <rect width="24.3" height="9.27" x="658.4" y="183.9" rx="4" ry="4" transform="rotate(-30 670.452158 188.647114)"/>
            <rect width="24.3" height="9.27" x="176.4" y="665.9" rx="4" ry="4" transform="rotate(-60 188.600266 670.534756)"/>
            <rect width="24.3" height="9.27" x="529.2" y="54.8" rx="4" ry="4" transform="rotate(-60 541.400266 59.467231)"/>
        </g>
        <path d="M365 365V35.9A328.1 328.1 0 00200.5 80z" class="om-lucky-wheel-sector-first"/>
        <path d="M365 365L529.5 80A328.1 328.1 0 00365 35.9z" class="om-lucky-wheel-sector-second"/>
        <path d="M365 365l285-164.5A328.5 328.5 0 00529.5 80z" class="om-lucky-wheel-sector-third"/>
        <path d="M365 365h329.1A328.1 328.1 0 00650 200.5z" class="om-lucky-wheel-sector-fourth"/>
        <path d="M365 365l285 164.5A328.1 328.1 0 00694.1 365z" class="om-lucky-wheel-sector-first"/>
        <path d="M365 365l164.5 285A328.5 328.5 0 00650 529.5z" class="om-lucky-wheel-sector-second"/>
        <path d="M365 365v329.1A328.1 328.1 0 00529.5 650z" class="om-lucky-wheel-sector-third"/>
        <path d="M365 365L200.5 650A328.1 328.1 0 00365 694.1z" class="om-lucky-wheel-sector-fourth"/>
        <path d="M365 365L80 529.5A328.5 328.5 0 00200.5 650z" class="om-lucky-wheel-sector-first"/>
        <path d="M365 365H35.9A328.1 328.1 0 0080 529.5z" class="om-lucky-wheel-sector-second"/>
        <path d="M365 365L80 200.5A328.1 328.1 0 0035.9 365z" class="om-lucky-wheel-sector-third"/>
        <path d="M365 365L200.5 80A328.5 328.5 0 0080 200.5z" class="om-lucky-wheel-sector-fourth"/>
        <g>
            <text x="655" y="370" class="om-lucky-wheel-text om-lucky-wheel-text-1" text-anchor="end" transform="rotate(16 365 368.5)">
                50% OFF
            </text>
            <text x="655" y="370" class="om-lucky-wheel-text om-lucky-wheel-text-2" text-anchor="end" transform="rotate(46 365 368.5)">
                Free License
            </text>
            <text x="655" y="370" class="om-lucky-wheel-text om-lucky-wheel-text-3" text-anchor="end" transform="rotate(76 365 368.5)">
                50% OFF
            </text>
            <text x="655" y="370" class="om-lucky-wheel-text om-lucky-wheel-text-4" text-anchor="end" transform="rotate(106 365 368.5)">
                No luck today
            </text>
            <text x="655" y="370" class="om-lucky-wheel-text om-lucky-wheel-text-5" text-anchor="end" transform="rotate(136 365 368.5)">
                50% OFF
            </text>
            <text x="655" y="370" class="om-lucky-wheel-text om-lucky-wheel-text-6" text-anchor="end" transform="rotate(166 365 368.5)">
                Spin again
            </text>
            <text x="655" y="370" class="om-lucky-wheel-text om-lucky-wheel-text-7" text-anchor="end" transform="rotate(196 365 368.5)">
                50% OFF
            </text>
            <text x="655" y="370" class="om-lucky-wheel-text om-lucky-wheel-text-8" text-anchor="end" transform="rotate(226 365 368.5)">
                70% OFF
            </text>
            <text x="655" y="370" class="om-lucky-wheel-text om-lucky-wheel-text-9" text-anchor="end" transform="rotate(256 365 368.5)">
                Free License
            </text>
            <text x="655" y="370" class="om-lucky-wheel-text om-lucky-wheel-text-10" text-anchor="end" transform="rotate(286 365 368.5)">
                Almost
            </text>
            <text x="655" y="370" class="om-lucky-wheel-text om-lucky-wheel-text-11" text-anchor="end" transform="rotate(316 365 368.5)">
                70% off
            </text>
            <text x="655" y="370" class="om-lucky-wheel-text om-lucky-wheel-text-12" text-anchor="end" transform="rotate(346 365 368.5)">
                Not quite
            </text>
        </g>
        <g fill="#407596">
            <circle cx="364.5" cy="27.2" r="4.5"/>
            <circle cx="365" cy="703.5" r="4.5"/>
            <circle cx="195.5" cy="72.6" r="4.5"/>
            <circle cx="534" cy="658" r="4.5"/>
            <circle cx="71.8" cy="196.5" r="4.5"/>
            <circle cx="657.7" cy="534.2" r="4.5"/>
            <circle cx="26.6" cy="365.6" r="4.5"/>
            <circle cx="702.9" cy="365.1" r="4.5"/>
            <circle cx="72" cy="534.6" r="4.5"/>
            <circle cx="657.5" cy="196.1" r="4.5"/>
            <circle cx="195.9" cy="658.3" r="4.5"/>
            <circle cx="533.6" cy="72.4" r="4.5"/>
        </g>
    </g>
    <path d="M46.9 372.5c0-181.7 147.4-329 329.1-329a327.3 327.3 0 01180.3 53.7A327.3 327.3 0 00365 35.9C183.3 35.9 35.9 183.3 35.9 365c0 115.2 59.2 216.5 148.8 275.3-83.4-59.7-137.8-157.4-137.8-267.8z" opacity=".15"/>
    <circle cx="368.5" cy="368.5" r="54.5" opacity=".2"/>
    <circle cx="365" cy="365" r="54.5" fill="#fff" data-name="middle"/>
    <g class="om-lucky-wheel-ticker">
        <path fill-opacity=".22" d="M719 155.5c-11.4-17.9-35.8-22.8-54.5-11a41.7 41.7 0 00-13.6 14.1l-33.6 58.9a2.3 2.3 0 000 2.4 2.4 2.4 0 002.3 1.1l67.5-5.1a43.8 43.8 0 0018.6-6.3c18.7-11.9 24.6-36.1 13.3-54.1z"/>
        <path fill="#fcfcfc" d="M723.9 152.4a38.4 38.4 0 00-66 1.8l-31.5 57.5a2.1 2.1 0 000 2.4 2.6 2.6 0 002.2 1.2l65.6-3.9a39.6 39.6 0 0017.9-5.9 38.5 38.5 0 0011.8-53.1z"/>
        <path fill="#ccc" d="M693.7 161.9a9.3 9.3 0 00-6.6 4.8l-.8 2.1a14.9 14.9 0 00-.2 2.1 8.8 8.8 0 001.1 4.2 9.2 9.2 0 002.9 3 7.6 7.6 0 002.9 1.3l1.1.2a8.6 8.6 0 004.2-.6 8.4 8.4 0 003.4-2.5 7.4 7.4 0 002-3.8 8.5 8.5 0 00-.1-4.2 8.4 8.4 0 00-2.1-3.8 7.4 7.4 0 00-3.5-2.3l-1-.3a12.2 12.2 0 00-3.3-.2z"/>
    </g>
</svg>
