<svg xmlns="http://www.w3.org/2000/svg" fill="none" viewBox="0 0 238 148"><path fill="#F0F1F2" d="M192 74c0 40.9-33.1 74-74 74s-74-33.1-74-74S77.1 0 118 0s74 33.2 74 74z"/><g filter="url(#filter0_d)"><path fill="#fff" d="M209.627 43H153a4 4 0 00-4 4l-.001 56.627a4 4 0 004 4l56.628.001a4 4 0 003.999-4l.001-56.627a4 4 0 00-4-4z"/><path fill="#D2D5D9" d="M188.707 80.293a.994.994 0 01.241 1.023l-1 3A.998.998 0 01187 85h-12a1.001 1.001 0 01-.949-.684l-1-3a1.003 1.003 0 01.242-1.023C173.427 80.158 176.635 77 181 77c4.364 0 7.572 3.158 7.707 3.293zM186.28 83l.562-1.687c-.92-.752-3.155-2.313-5.84-2.313-2.704 0-4.928 1.558-5.844 2.31l.562 1.69h10.56zM181 67c-1.654 0-3 1.346-3 3s1.346 3 3 3 3-1.346 3-3-1.346-3-3-3zm0 8c-2.757 0-5-2.243-5-5s2.243-5 5-5 5 2.243 5 5-2.243 5-5 5z"/></g><g filter="url(#filter1_d)"><path fill="#fff" d="M84.313 43h-56a4 4 0 00-3.999 4v56a4 4 0 004 4l56-.001a4 4 0 004-4v-56a4 4 0 00-4-3.999z"/></g><path fill="#D2D5D9" d="M54.079 76.12l-7.582.008c-.67.012-1.058.453-1.047 1.124l.01 7.581c.01.671.451 1.059 1.123 1.047l7.581-.009c.671-.011 1.058-.452 1.047-1.123l-.009-7.582c-.069-.57-.452-1.058-1.123-1.047zm-1.019 7.519l-5.468.033-.033-5.469 5.469-.032.032 5.468zm1.015-19.484l-7.581.009c-.672.01-1.059.452-1.048 1.123l.01 7.581c.01.672.452 1.059 1.123 1.048l7.581-.01c.671-.01 1.059-.452 1.047-1.123l-.009-7.581c.031-.514-.452-1.059-1.123-1.047zm-1.076 7.619l-5.469.033-.032-5.469 5.468-.032.033 5.468zm13.045 4.341l-7.582.01c-.671.01-1.058.452-1.047 1.123l.009 7.581c.011.671.452 1.059 1.123 1.047l7.582-.009c.67-.01 1.058-.452 1.047-1.123l-.01-7.581c-.068-.572-.451-1.059-1.122-1.048zm-1.077 7.62l-5.468.033-.033-5.469 5.469-.033.032 5.469zM58.43 70.656l2.113.024-.023 2.113c.01.67.452 1.058 1.123 1.047.671-.011 1.058-.452 1.047-1.123l.024-2.113 2.113.023c.671-.01 1.058-.452 1.047-1.123-.011-.671-.452-1.058-1.123-1.047l-2.113-.024.024-2.113c-.012-.67-.453-1.058-1.124-1.047-.67.011-1.058.452-1.047 1.123l-.024 2.113-2.113-.023c-.67.01-1.058.452-1.047 1.123.069.571.552 1.116 1.123 1.047z"/><path fill="#35B2AA" d="M155 34H82a4 4 0 00-4 4v73a4 4 0 004 4h73a4 4 0 004-4V38a4 4 0 00-4-4z"/><path fill="#fff" d="M129.449 62c.886 0 1.551.665 1.551 1.551v13.963c0 .443-.111.776-.443 1.108l-13.963 13.962c-.554.554-1.551.554-2.216 0l-13.962-13.962c-.554-.554-.554-1.551 0-2.216l13.962-13.963c.332-.332.665-.443 1.108-.443h13.963zm-13.963 27.26l2.438-2.438-11.746-11.746-2.438 2.438 11.746 11.746zm12.411-12.411V65.103h-11.746l-7.757 7.757 11.746 11.746 7.757-7.757zm-4.654-5.54c-.886 0-1.551-.666-1.551-1.552 0-.887.665-1.552 1.551-1.552.887 0 1.551.665 1.551 1.552 0 .886-.664 1.551-1.551 1.551z"/><path fill="#42474C" d="M97.323 48.155C82.456 59.663 79.74 80.987 91.247 95.853c10.651 13.76 29.868 17.348 44.65 8.182 1.15-.637 2.337-1.556 3.444-2.413 1.107-.856 2.074-1.731 3.137-2.808 11.799-12.04 12.887-31.22 2.542-44.583-11.507-14.867-32.831-17.583-47.697-6.076zM136.27 98.31c-.87.673-1.74 1.346-2.732 1.862-12.841 7.916-29.489 4.869-38.732-7.072-9.977-12.89-7.619-31.408 5.271-41.385 12.89-9.977 31.408-7.619 41.385 5.271 8.937 11.545 8.03 28.181-2.213 38.638a23.737 23.737 0 01-2.663 2.44l-.316.246z"/><path fill="#42474C" d="M139.888 99.552c.486-.516 1.367-.358 1.773.167l26.439 30.889c2.032 2.625 1.68 6.256-.692 8.092-2.372 1.836-5.975 1.266-8.007-1.359l-23.207-33.25c-.475-.612-.339-1.417.283-1.758 1.095-.708 2.372-1.836 3.411-2.78z"/><defs><filter id="filter0_d" width="112.628" height="112.628" x="124.999" y="23" color-interpolation-filters="sRGB" filterUnits="userSpaceOnUse"><feFlood flood-opacity="0" result="BackgroundImageFix"/><feColorMatrix in="SourceAlpha" values="0 0 0 0 0 0 0 0 0 0 0 0 0 0 0 0 0 0 127 0"/><feOffset dy="4"/><feGaussianBlur stdDeviation="12"/><feColorMatrix values="0 0 0 0 0 0 0 0 0 0 0 0 0 0 0 0 0 0 0.15 0"/><feBlend in2="BackgroundImageFix" result="effect1_dropShadow"/><feBlend in="SourceGraphic" in2="effect1_dropShadow" result="shape"/></filter><filter id="filter1_d" width="112" height="112" x=".314" y="23" color-interpolation-filters="sRGB" filterUnits="userSpaceOnUse"><feFlood flood-opacity="0" result="BackgroundImageFix"/><feColorMatrix in="SourceAlpha" values="0 0 0 0 0 0 0 0 0 0 0 0 0 0 0 0 0 0 127 0"/><feOffset dy="4"/><feGaussianBlur stdDeviation="12"/><feColorMatrix values="0 0 0 0 0 0 0 0 0 0 0 0 0 0 0 0 0 0 0.15 0"/><feBlend in2="BackgroundImageFix" result="effect1_dropShadow"/><feBlend in="SourceGraphic" in2="effect1_dropShadow" result="shape"/></filter></defs></svg>