<svg xmlns="http://www.w3.org/2000/svg" viewBox="0 0 280 270"><defs><style>.cls-1{fill:none;stroke:#424242;stroke-linecap:round;stroke-linejoin:round;stroke-width:10px;}</style></defs><g id="Layer_2" data-name="Layer 2"><g id="Icons"><path class="cls-1" d="M20,5s5.42,41.67,5.42,60.84S5,141.67,5,165s15,40,40,40c30.42,0,52.92-10,70-10,28.75,0,46.67,10,75,10,20.42,0,30-5,35-5s13.33,5,25,5c10.47,0,25-4.79,25-22.58a8.44,8.44,0,0,0-1.89-5.19,6.31,6.31,0,0,0-4.74-2.58C230,174.65,198.15,143.12,180,135c-29.77-13.33-65-29.79-65-50V5"/><path class="cls-1" d="M50,100c-4.93,11-.2,23.55,10,30"/><line class="cls-1" x1="275" y1="215" x2="275" y2="265"/><line class="cls-1" x1="5" y1="215" x2="5" y2="265"/><polyline class="cls-1" points="240 225 255 240 240 255"/><polyline class="cls-1" points="40 225 25 240 40 255"/><line class="cls-1" x1="255" y1="240" x2="25" y2="240"/></g></g></svg>